<svg width="18" height="24" viewBox="0 0 18 24" fill="none" xmlns="http://www.w3.org/2000/svg">
<path fill-rule="evenodd" clip-rule="evenodd" d="M3.52722 19.5392C3.39762 19.5345 3.26797 19.531 3.13841 19.5249C2.78219 19.5079 2.65411 19.3896 2.62274 19.0408C2.61365 18.9391 2.59411 18.8283 2.62309 18.7353C2.78406 18.2181 2.71636 17.7164 2.58881 17.2023C2.50519 16.8654 2.5791 16.5081 2.69009 16.1849C3.34628 14.274 3.56642 12.2703 3.97049 10.3057C3.99225 10.1998 3.9477 10.0484 4.1242 10.0163C4.17119 10.0078 4.16958 9.96392 4.14064 9.93281C4.07978 9.86729 4.03788 9.78733 3.9226 9.78307C3.58317 9.77049 3.26771 9.65638 2.95782 9.52634C2.93206 9.51551 2.90326 9.50968 2.88047 9.49454C2.54439 9.27192 2.25686 9.00236 1.80249 8.95011C1.58944 8.92562 1.32819 8.77083 1.0917 8.67155C0.519776 8.43144 0.0872015 8.05603 0.0249018 7.34137C-0.0253905 6.76492 0.0831556 6.35153 0.556712 5.96821C1.36526 5.31358 2.11373 4.5846 2.88451 3.88369C2.98401 3.79328 3.08277 3.71589 3.22255 3.71041C3.9145 3.6833 4.59806 3.72633 5.25773 3.95978C5.40569 4.01212 5.53586 4.09839 5.65085 4.19793C6.12045 3.71228 6.17526 3.15645 5.97875 2.53915C5.87856 2.22439 5.68809 2.00578 5.41261 1.84576C5.18738 1.71503 4.95324 1.59783 4.7378 1.45278C4.44657 1.25666 4.39476 1.0628 4.51227 0.730764C4.59023 0.510626 4.6762 0.292969 4.84317 0.122602C5.03129 -0.0693444 5.25112 -0.034366 5.34509 0.216704C5.40552 0.378152 5.51746 0.475735 5.64332 0.572186C6.00594 0.850186 6.35698 1.14163 6.63659 1.50686C7.18663 2.22544 7.35252 3.01993 7.12164 3.90157C6.93334 4.62037 6.7836 5.34499 6.78925 6.09668C6.7933 6.62879 6.92225 7.07233 7.44249 7.31622C7.54116 7.36247 7.56809 7.43995 7.57579 7.54014C7.59724 7.81797 7.63065 8.09501 7.64836 8.37306C7.66432 8.62343 7.81507 8.87589 7.96421 8.87698C8.15376 8.87833 8.39856 8.52772 8.37611 8.28887C8.34614 7.97046 8.24616 7.6697 8.12905 7.37635C7.81998 6.60178 7.91731 5.84613 8.2138 5.09614C8.26157 4.97528 8.31147 4.85538 8.35789 4.73405C8.36345 4.71956 8.35332 4.69902 8.3501 4.68132C8.06414 4.7933 7.66732 5.33533 7.52741 5.79723C7.38537 6.26617 7.46333 6.73395 7.54673 7.20624C7.21809 7.14464 6.90946 6.74669 6.88806 6.30516C6.84812 5.48151 6.99425 4.67592 7.1815 3.87716C7.21352 3.74029 7.32263 3.74547 7.42256 3.74073C7.98822 3.71384 8.55701 3.68113 8.8964 4.27115C9.20028 3.8213 9.62833 3.6585 10.102 3.68848C10.6475 3.72294 11.1917 3.81395 11.7225 3.96126C12.2789 4.11566 12.7397 4.40419 13.0742 4.8871C13.5528 5.57801 14.1762 6.14553 14.7139 6.78619C14.8505 7.28955 14.81 7.76642 14.5017 8.20317C14.3888 8.40668 14.1919 8.49905 13.9874 8.46076C13.8257 8.43057 13.7924 8.47416 13.7687 8.60163C13.7496 8.70474 13.6726 8.85905 13.713 8.89977C13.841 9.02868 13.8726 9.20375 13.982 9.34031C14.4761 9.957 14.6716 10.6682 14.6025 11.4542C14.5836 11.6691 14.5881 11.8814 14.6816 12.0833C14.7969 12.3325 14.8595 12.5932 14.8263 12.8689C14.8112 12.9943 14.8718 13.0774 14.9483 13.1645C15.2552 13.5141 15.5553 13.8697 15.8622 14.2193C15.9664 14.3379 16.0462 14.4602 15.9765 14.6205C15.9337 14.7193 15.856 14.7888 15.737 14.7774C15.5731 14.762 15.4752 14.6649 15.4 14.5219C15.2452 14.2278 15.0069 13.9999 14.7527 13.6804C14.7316 14.3601 14.7566 14.9503 14.8032 15.5392C14.8695 16.3753 15.13 17.1807 15.2049 18.0159C15.2201 18.1857 15.2718 18.3408 15.346 18.4935C15.5116 18.8352 15.4583 19.1141 15.1877 19.3793C14.6901 19.8669 13.6296 19.6835 13.326 19.0571C13.2468 18.8938 13.2172 18.7079 13.3684 18.5951C13.5992 18.4229 13.5318 18.2399 13.4251 18.0642C12.9796 17.3305 12.8939 16.4853 12.6741 15.6824C12.6088 15.4439 12.5282 15.2227 12.3575 15.0407C12.2075 14.8809 12.0822 14.695 12.0708 14.4786C12.0578 14.2328 11.951 14.2484 11.7711 14.2964C11.4815 14.3739 11.1862 14.3727 10.8852 14.3484C10.6485 14.3293 10.6099 14.2258 10.6471 14.0268C10.6691 13.9096 10.7181 13.8139 10.8168 13.7506C11.0688 13.589 11.1735 13.3365 11.2679 13.0681C11.5235 12.3409 11.3933 11.595 11.3908 10.8552C11.3907 10.8138 11.3654 10.7726 11.3535 10.7362C11.2132 11.1621 11.2697 11.5925 11.2741 12.0239C11.2802 12.6082 11.0866 13.1467 10.7006 13.5847C10.5149 13.7954 10.4119 14.0018 10.4022 14.2765C10.3768 14.9975 10.2283 15.6804 9.71404 16.2284C9.59918 16.3507 9.57517 16.4771 9.5994 16.6344C9.65552 16.9966 9.60292 17.3426 9.52218 17.705C9.41998 18.1637 9.34537 18.6394 9.5994 19.1139C9.8948 19.6656 9.76846 19.9502 9.20511 20.2574C9.18958 20.2659 9.17818 20.282 9.16482 20.2946C8.83149 20.3404 8.4981 20.3807 8.1645 20.2964C7.96051 20.1856 7.7512 20.0832 7.55369 19.9617C7.25398 19.7772 7.13956 19.5077 7.18946 19.1535C7.25776 18.6692 7.42065 18.1976 7.37619 17.697C7.36405 17.5607 7.40198 17.4211 7.46063 17.2908C7.63439 16.9046 7.7475 16.5287 7.58649 16.0872C7.45358 15.7228 7.62404 15.547 7.99362 15.5568C7.70739 15.2618 7.70648 15.262 7.56291 14.7555C7.51471 14.5856 7.47446 14.4135 7.42696 14.2435C7.32681 13.8854 6.7052 13.4737 6.33763 13.52C6.1824 13.5395 6.05036 13.6101 5.95713 13.7319C5.683 14.0902 5.44716 14.4783 5.41087 14.9342C5.3718 15.425 5.20892 15.8178 4.82177 16.1436C4.46654 16.4426 4.44044 16.7701 4.65048 17.1983C4.80188 17.5071 4.95641 17.8143 5.11055 18.1217C5.30633 18.5122 5.27735 18.7539 4.99292 19.0895C4.54377 19.3678 4.05851 19.5284 3.52722 19.5392ZM10.6919 10.1714C10.6123 10.2346 10.5326 10.2978 10.4531 10.361C10.5438 10.3103 10.6922 10.3177 10.6877 10.167C10.7924 10.2035 10.8394 10.13 10.8833 10.0522C10.8195 10.0919 10.7556 10.1316 10.6919 10.1714ZM4.58449 6.95178C4.51379 6.68278 4.50896 6.48096 4.5241 6.27623C4.55999 5.79036 4.64909 5.31911 4.88076 4.88327C4.9059 4.83589 4.94045 4.7729 4.89359 4.728C4.83978 4.6764 4.7937 4.72721 4.75555 4.7682C4.38823 5.16214 4.07147 5.5871 4.04332 6.15062C4.00286 6.96174 4.20847 7.75354 4.25772 8.55917C4.27743 8.88133 4.54777 8.93789 4.79005 8.71945C5.09411 8.44532 4.93697 8.12455 4.85718 7.83563C4.73306 7.38587 4.68833 6.94795 4.81137 6.49249C4.8577 6.32095 4.9059 6.14005 4.87045 5.88302C4.77778 6.26787 4.75168 6.59242 4.58449 6.95178ZM11.1508 4.60736C10.7984 4.47932 10.4513 4.44104 10.1005 4.42572C9.97333 4.42015 9.85926 4.45639 9.76176 4.53083C9.60849 4.6479 9.4601 4.80452 9.54798 4.99825C9.63499 5.19016 9.85978 5.16662 10.019 5.10358C10.3997 4.95275 10.7445 4.71838 11.1508 4.60736ZM3.0467 4.82567C2.66842 4.84333 2.37772 5.00917 2.13931 5.2716C2.10324 5.31136 2.04695 5.35622 2.08858 5.41173C2.12887 5.46537 2.18973 5.43105 2.2402 5.40803C2.28231 5.38884 2.32616 5.37214 2.36532 5.34808C2.91136 5.01152 3.46152 4.9936 4.01822 5.32189C4.0619 5.34765 4.1235 5.4022 4.1607 5.33359C4.20521 5.25141 4.12407 5.22692 4.06621 5.19916C3.7554 5.04994 3.43381 4.96393 3.08385 5.00904C3.00459 5.01927 2.90631 5.10497 2.83113 4.96532C2.90205 4.91942 2.97435 4.87252 3.0467 4.82567ZM9.06411 9.195C8.93812 9.55101 8.9999 9.90105 9.25244 10.3226C9.49977 10.7353 10.0073 10.7796 10.347 10.4165C10.2199 10.3828 10.1092 10.4505 9.99325 10.4739C9.61567 10.5505 9.50721 10.4982 9.31801 10.159C9.1509 9.85946 9.05541 9.54492 9.06411 9.195ZM5.22567 13.0726C5.44929 13.2117 5.66116 13.282 5.91353 13.2113C6.0444 13.1747 6.17213 13.1054 6.3197 13.1542C6.69119 13.2771 7.05925 13.4061 7.3831 13.6339C7.46385 13.6907 7.54338 13.7492 7.62343 13.807C7.63574 13.7825 7.64805 13.758 7.66041 13.7334C7.2331 13.3209 6.72843 13.0701 6.11222 13.0999C5.87812 13.1112 5.65124 13.1382 5.42884 13.0428C5.37124 13.0183 5.30903 13.0105 5.22567 13.0726ZM8.66295 6.5735C8.77484 6.5192 8.73212 6.71267 8.83527 6.65681C8.98358 6.57659 8.98924 6.43698 8.97392 6.29454C8.96035 6.16851 8.91371 6.03712 8.77915 6.02202C8.62866 6.00514 8.58894 6.14588 8.56388 6.26504C8.49423 6.59664 8.61483 6.89513 8.74487 7.1921C8.71711 6.98232 8.68927 6.77253 8.66295 6.5735ZM13.5434 10.3153C13.6029 10.977 13.5322 11.6348 13.506 12.2944C13.7101 11.6425 13.7037 10.9818 13.5434 10.3153ZM4.93745 9.21406C5.00379 9.4121 5.13165 9.59834 5.02354 9.84045C5.07083 9.69271 5.30289 9.7761 5.26678 9.71729C5.128 9.49145 5.26013 9.29654 5.30472 9.08563C5.16289 9.13523 5.04573 9.17617 4.93745 9.21406ZM4.9615 5.57126C5.14305 5.18459 5.33143 4.8013 5.53969 4.42764C5.28088 4.77533 5.0674 5.146 4.9615 5.57126ZM9.94431 7.13598C9.88527 7.29721 9.81623 7.45518 9.719 7.60075C9.62389 7.74305 9.53088 7.88666 9.43695 8.02967C9.6808 7.77155 9.96585 7.53357 9.94431 7.13598ZM11.1261 9.32917C11.5835 9.86072 11.5835 9.86072 11.784 9.70715C11.5899 9.57154 11.4248 9.39321 11.1261 9.32917ZM3.64655 16.3463C3.82423 16.6682 4.04324 16.727 4.33216 16.556C4.07948 16.5806 3.89745 16.4727 3.64655 16.3463ZM13.3896 9.12296C13.1718 9.26252 12.8651 9.06135 12.6618 9.32887C12.9317 9.31604 13.1933 9.34431 13.3896 9.12296ZM5.11151 7.66105C5.34648 7.59561 5.59264 7.59 5.83953 7.58917C5.58294 7.44974 5.34435 7.50604 5.11151 7.66105ZM3.4801 4.36503C3.65199 4.55245 3.80017 4.71399 3.94844 4.87561C3.88061 4.60105 3.73778 4.45278 3.4801 4.36503ZM9.57225 5.60859C9.35712 5.77322 9.36373 5.79801 9.66727 5.95807C9.59518 5.83364 9.50138 5.7405 9.57225 5.60859ZM9.39723 8.13865C9.39105 8.13199 9.38409 8.12033 9.38065 8.12129C9.36573 8.12547 9.35185 8.13338 9.33758 8.13995C9.34359 8.14522 9.35059 8.15561 9.35529 8.1547C9.3696 8.15179 9.38305 8.14443 9.39723 8.13865Z" fill="#223C72"/>
<path fill-rule="evenodd" clip-rule="evenodd" d="M3.52685 19.5392C4.05809 19.5285 4.54339 19.3679 4.99254 19.0897C4.99742 19.4326 5.00425 19.7753 5.00599 20.1181C5.00655 20.2291 5.00803 20.3169 5.16148 20.3155C6.16232 20.306 7.16329 20.3023 8.16418 20.2966C8.49778 20.3809 8.83116 20.3406 9.16449 20.2948C9.19186 20.3001 9.21914 20.3099 9.24646 20.3099C11.5893 20.3117 13.9321 20.3112 16.2748 20.3166C16.4462 20.3171 16.4698 20.2408 16.4697 20.0969C16.4672 16.2107 16.4665 12.3246 16.4714 8.43845C16.4716 8.25033 16.4077 8.2036 16.2304 8.20591C15.6542 8.21326 15.0778 8.2053 14.5014 8.20326C14.8098 7.7665 14.8503 7.28964 14.7136 6.78628C15.7181 6.78398 16.7226 6.78837 17.7269 6.77423C17.9676 6.77084 17.9426 6.90518 17.9425 7.05819C17.9415 10.23 17.9417 13.4017 17.9416 16.5734C17.9416 17.9128 17.9371 19.2522 17.9462 20.5916C17.9476 20.8122 17.9029 20.8959 17.6586 20.8956C13.045 20.8881 8.43165 20.8884 3.8182 20.895C3.5864 20.8952 3.50927 20.8334 3.5218 20.5992C3.54051 20.2468 3.52676 19.8927 3.52685 19.5392Z" fill="#EC8D1B"/>
<path fill-rule="evenodd" clip-rule="evenodd" d="M10.7302 23.4839C13.0283 23.4839 15.3264 23.4894 17.6245 23.4767C17.9023 23.4753 17.9567 23.5748 17.9355 23.8132C17.9245 23.9369 17.8965 24.0099 17.7592 23.9988C17.7222 23.9959 17.6848 23.9986 17.6476 23.9986C13.042 23.9986 8.43651 23.9982 3.83094 23.9997C3.66418 23.9998 3.53044 24.0145 3.52836 23.7659C3.52627 23.521 3.61563 23.4787 3.83603 23.4795C6.13403 23.4867 8.43211 23.4839 10.7302 23.4839Z" fill="#EC8D1B"/>
<path fill-rule="evenodd" clip-rule="evenodd" d="M9.61156 18.2009C9.66385 17.6972 9.76818 17.1985 9.74212 16.6866C9.73363 16.5195 9.81364 16.3485 9.94185 16.2379C10.4138 15.8307 10.6013 15.3118 10.5794 14.704C10.5722 14.505 10.642 14.4513 10.8432 14.5024C11.0015 14.5425 11.1767 14.541 11.3411 14.5249C11.5596 14.5036 11.5754 14.603 11.5321 14.7714C11.5029 14.8847 11.4338 14.9709 11.3589 15.0531C11.0897 15.3482 10.8281 15.6509 10.5441 15.9312C10.3028 16.1694 10.2287 16.4449 10.2678 16.7675C10.301 17.0407 10.3605 17.305 10.1566 17.5616C10.0311 17.7197 10.1577 18.0691 10.3303 18.1933C10.5165 18.3274 10.66 18.7137 10.5841 18.9161C10.5035 19.1307 10.332 19.2211 10.1071 19.2376C9.96874 19.2479 9.88877 19.1974 9.81168 19.0836C9.62826 18.8122 9.60881 18.5117 9.61156 18.2009Z" fill="#223C72"/>
<path d="M4.43434 21.7858C4.40955 21.615 4.34459 21.5249 4.24523 21.5249C4.10388 21.5249 4.02752 21.7151 4.02752 22.0612C4.02752 22.4196 4.10583 22.6 4.25862 22.6C4.37896 22.6 4.45727 22.5073 4.46493 22.344H4.23191V22.0149H4.83359V22.9437H4.58148L4.54702 22.8218C4.45349 22.9364 4.36369 22.9779 4.2109 22.9779C3.81548 22.9779 3.60156 22.6463 3.60156 22.0418C3.60156 21.486 3.84223 21.152 4.24523 21.152C4.57191 21.152 4.77051 21.3397 4.83733 21.7151L4.43434 21.7858Z" fill="#223C72"/>
<path d="M4.97754 21.5907H5.33663V21.7761C5.42064 21.6248 5.52379 21.5542 5.65749 21.5542C5.6728 21.5542 5.68233 21.5542 5.70717 21.5567V21.9808C5.6785 21.9784 5.66893 21.9759 5.64987 21.9759C5.47602 21.9759 5.33663 22.0929 5.33663 22.2319V22.9437H4.97754V21.5907Z" fill="#223C72"/>
<path d="M6.04844 22.9803C5.86507 22.9803 5.76953 22.834 5.76953 22.5586V21.5908H6.12671V22.4513C6.12671 22.4805 6.12858 22.5122 6.12858 22.5293C6.13432 22.5952 6.16682 22.6317 6.21838 22.6317C6.26802 22.6317 6.31579 22.5928 6.3559 22.5221V21.5908H6.71116V22.9438H6.3559V22.8048C6.25475 22.9243 6.15925 22.9803 6.04844 22.9803Z" fill="#223C72"/>
<path d="M6.84868 21.5907H7.20586V21.6858C7.28034 21.598 7.3606 21.5518 7.45606 21.5518C7.68907 21.5518 7.83995 21.8345 7.83995 22.2709C7.83995 22.7048 7.67763 22.9778 7.4236 22.9778C7.33002 22.9778 7.26124 22.9437 7.20394 22.8584L7.20477 23.2028L6.84863 23.3849V21.5907H6.84868ZM7.20586 22.5268C7.2173 22.6048 7.26124 22.6536 7.31853 22.6536C7.41211 22.6536 7.45606 22.5342 7.45606 22.2806C7.45606 22.0247 7.41016 21.8955 7.31853 21.8955C7.25745 21.8955 7.21347 21.9564 7.20586 22.0539V22.5268Z" fill="#223C72"/>
<path d="M8.42232 21.5518C8.73747 21.5518 8.94182 21.8322 8.94182 22.266C8.94182 22.7024 8.73747 22.9802 8.42232 22.9802C8.11674 22.9802 7.92188 22.7048 7.92188 22.266C7.92188 21.8297 8.11674 21.5518 8.42232 21.5518ZM8.2848 22.266C8.2848 22.5268 8.32678 22.6365 8.4204 22.6365C8.5159 22.6365 8.55792 22.5268 8.55792 22.266C8.55792 22.0052 8.5159 21.8979 8.4204 21.8979C8.32682 21.8979 8.2848 22.0052 8.2848 22.266Z" fill="#223C72"/>
<path d="M9.60449 21.1862H10.5576V21.5713H9.98838V21.8517H10.4563V22.2369H9.99021V22.9437H9.60449V21.1862Z" fill="#223C72"/>
<path d="M11.0472 21.5518C11.3625 21.5518 11.5669 21.8322 11.5669 22.266C11.5669 22.7024 11.3625 22.9802 11.0472 22.9802C10.7417 22.9802 10.5469 22.7048 10.5469 22.266C10.5469 21.8297 10.7417 21.5518 11.0472 21.5518ZM10.9098 22.266C10.9098 22.5268 10.9518 22.6365 11.0454 22.6365C11.1409 22.6365 11.183 22.5268 11.183 22.266C11.183 22.0052 11.1409 21.8979 11.0454 21.8979C10.9518 21.8979 10.9098 22.0052 10.9098 22.266Z" fill="#223C72"/>
<path d="M11.6758 21.5907H12.0347V21.7761C12.1189 21.6248 12.2219 21.5542 12.3557 21.5542C12.371 21.5542 12.3805 21.5542 12.4053 21.5567V21.9808C12.3767 21.9784 12.3672 21.9759 12.3481 21.9759C12.1743 21.9759 12.0348 22.0929 12.0348 22.2319V22.9437H11.6758V21.5907Z" fill="#223C72"/>
<path d="M12.3916 21.5908H12.5158L12.5172 21.2289L12.8749 21.0457L12.873 21.5908H13.1078V21.8931H12.873V22.4172C12.873 22.4562 12.873 22.483 12.8748 22.5001C12.8824 22.5781 12.9302 22.6219 13.0065 22.6219C13.0409 22.6219 13.0676 22.6171 13.1078 22.6048V22.9486L13.0983 22.951L13.0734 22.9559C13.0048 22.9729 12.9626 22.9779 12.9111 22.9779C12.7773 22.9779 12.6761 22.9339 12.6056 22.8413C12.5386 22.756 12.5177 22.6609 12.5177 22.4611V21.8931H12.3917V21.5908H12.3916Z" fill="#223C72"/>
<path d="M13.7797 22.0102C13.7797 21.9346 13.7378 21.8858 13.671 21.8858C13.5983 21.8858 13.5506 21.9321 13.5161 22.037L13.2067 21.915C13.3003 21.6665 13.4494 21.5543 13.6862 21.5543C13.9783 21.5543 14.1331 21.7176 14.1331 22.0297V22.7488C14.1331 22.8609 14.1331 22.878 14.1407 22.9438H13.8141L13.7969 22.8048C13.7682 22.8414 13.7549 22.856 13.7321 22.878C13.6576 22.9414 13.5678 22.9779 13.478 22.9779C13.285 22.9779 13.1494 22.817 13.1494 22.5879C13.1494 22.3709 13.2602 22.2393 13.499 22.1614L13.6059 22.1272C13.6728 22.1052 13.7168 22.0906 13.7817 22.0589L13.7797 22.0102ZM13.7817 22.3343C13.7339 22.3685 13.7168 22.3806 13.6403 22.4148C13.5314 22.4635 13.499 22.5025 13.499 22.5781C13.499 22.6439 13.5333 22.6829 13.5926 22.6829C13.6403 22.6829 13.6919 22.6561 13.7262 22.6123C13.7606 22.5683 13.7817 22.5123 13.7817 22.4611V22.3343H13.7817Z" fill="#223C72"/>
<path d="M14.2745 21.2271L14.6315 21.0471V22.9437H14.2725L14.2745 21.2271Z" fill="#223C72"/>
<path d="M15.0897 22.344C15.0897 22.5244 15.1471 22.6317 15.2388 22.6317C15.2808 22.6317 15.3209 22.6097 15.3439 22.5683C15.363 22.5389 15.382 22.4976 15.405 22.4367L15.7143 22.5658C15.6379 22.8365 15.4699 22.9802 15.2312 22.9802C14.9256 22.9802 14.7402 22.7121 14.7402 22.2709C14.7402 21.837 14.937 21.5542 15.2426 21.5542C15.5559 21.5542 15.7182 21.8199 15.7258 22.344H15.0897V22.344ZM15.0956 22.1198H15.3916C15.3897 21.9638 15.3381 21.876 15.2483 21.876C15.1586 21.8761 15.1012 21.9662 15.0956 22.1198Z" fill="#223C72"/>
<path d="M15.795 22.6609L16.1407 22.0345C16.1731 21.9735 16.2266 21.915 16.303 21.8565C16.2266 21.9028 16.1482 21.9345 16.1081 21.9345H15.8445V21.5908H16.6411L16.6372 21.8761L16.3297 22.4635C16.301 22.5196 16.2399 22.5854 16.1597 22.6512C16.2017 22.6244 16.219 22.6171 16.2533 22.6049C16.2972 22.5879 16.3412 22.5806 16.3775 22.5806H16.6582V22.9438H15.7949V22.6609H15.795Z" fill="#223C72"/>
<path d="M17.3647 22.0102C17.3647 21.9346 17.3227 21.8858 17.256 21.8858C17.1833 21.8858 17.1355 21.9321 17.1011 22.037L16.7917 21.915C16.8853 21.6665 17.0343 21.5543 17.2712 21.5543C17.5634 21.5543 17.718 21.7176 17.718 22.0297V22.7488C17.718 22.8609 17.718 22.878 17.7257 22.9438H17.3991L17.382 22.8048C17.3532 22.8414 17.3399 22.856 17.317 22.878C17.2425 22.9414 17.1527 22.9779 17.0629 22.9779C16.87 22.9779 16.7344 22.817 16.7344 22.5879C16.7344 22.3709 16.8452 22.2393 17.0839 22.1614L17.1909 22.1272C17.2578 22.1052 17.3017 22.0906 17.3666 22.0589L17.3647 22.0102ZM17.3667 22.3343C17.3189 22.3685 17.3018 22.3806 17.2253 22.4148C17.1164 22.4635 17.084 22.5025 17.084 22.5781C17.084 22.6439 17.1184 22.6829 17.1776 22.6829C17.2253 22.6829 17.2768 22.6561 17.3113 22.6123C17.3456 22.5683 17.3666 22.5123 17.3666 22.4611V22.3343H17.3667Z" fill="#223C72"/>
</svg>
