<svg width="24" height="24" viewBox="0 0 24 24" fill="none" xmlns="http://www.w3.org/2000/svg">
<path d="M16.3564 14.8284C16.5634 13.3784 16.7709 11.9285 16.981 10.4563H19.4794V10.5455C19.4388 10.724 19.3982 10.8993 19.3553 11.0876H17.826C17.7671 11.4985 17.7096 11.8977 17.6475 12.3225H19.2001C19.1648 12.5455 19.1327 12.749 19.1001 12.9551H17.5588C17.5012 13.3566 17.445 13.7492 17.3848 14.1721H18.9462C18.8949 14.4117 18.8503 14.6182 18.8061 14.8275L16.3564 14.8284Z" fill="#001E78"/>
<path d="M7.96973 14.8284C8.05895 14.2279 8.15309 13.6274 8.24098 13.026C8.35994 12.212 8.47728 11.3975 8.59297 10.5826C8.59545 10.5448 8.59545 10.507 8.59297 10.4692H9.54189C9.99516 11.5257 10.4466 12.5775 10.8963 13.6247L10.9445 13.614C11.0436 12.9212 11.1426 12.2283 11.2474 11.4976C11.4656 11.7059 11.6628 11.9156 11.7351 12.1694C11.7899 12.3608 11.7145 12.5924 11.686 12.8047C11.6052 13.407 11.5169 14.0093 11.4362 14.6107C11.433 14.6835 11.4372 14.7564 11.4487 14.8284H10.4226C10.406 14.7436 10.4038 14.6526 10.3712 14.575C10.0509 13.8183 9.72748 13.0632 9.40091 12.3095C9.30589 12.0865 9.20819 11.8683 9.08862 11.5957C9.06052 11.7037 9.04133 11.7572 9.0333 11.8121C8.93159 12.5156 8.82764 13.2192 8.73217 13.9232C8.69112 14.2234 8.66837 14.5255 8.63759 14.8266L7.96973 14.8284Z" fill="#001E78"/>
<path d="M13.9469 14.8284C13.8015 14.8177 13.6556 14.8012 13.5097 14.7976C13.2956 14.7923 13.081 14.7976 12.8454 14.7976C12.9422 14.4497 13.1412 14.2012 13.3732 13.9661C13.5704 14.2605 14.0598 14.2074 14.3395 14.0865C14.8169 13.88 15.0885 13.4958 15.221 13.0064C15.3848 12.4019 15.2211 11.8737 14.8053 11.4253C14.5438 11.1421 14.2074 11.0238 13.793 11.0952L13.5753 12.5674C13.4669 12.4983 13.3843 12.463 13.3241 12.4042C12.9908 12.0803 12.791 11.6966 12.8405 11.217C12.8655 10.9748 12.907 10.7343 12.9449 10.4657H13.3567C13.6538 10.4657 13.9514 10.4755 14.2489 10.4657C14.9128 10.4394 15.4089 10.7361 15.7769 11.2607C16.7446 12.6495 15.9964 14.4225 14.4724 14.7584C14.3288 14.7896 14.182 14.8088 14.037 14.8338L13.9469 14.8284Z" fill="#001E78"/>
<path d="M4.84766 14.8283C4.89227 14.5981 4.94848 14.3693 4.98373 14.1373C5.05332 13.6764 5.11087 13.2142 5.17556 12.7543C5.18483 12.7078 5.19736 12.662 5.21304 12.6173L6.1053 12.7726L5.9148 14.1649H7.46555C7.42094 14.4041 7.38346 14.6169 7.34509 14.8297L4.84766 14.8283Z" fill="#001E78"/>
<path d="M6.17861 12.2573L5.27832 12.0869L5.50139 10.4808H7.97607C7.95331 10.6767 7.93146 10.8703 7.90647 11.0787H6.3584L6.17861 12.2573Z" fill="#001E78"/>
<path fill-rule="evenodd" clip-rule="evenodd" d="M1.99902 7.42529C1.99902 7.42529 2.95865 8.16988 4.18506 8.58523C5.41147 9.00058 5.82771 8.98407 6.728 8.98675C7.62829 8.98942 8.96133 8.94481 10.074 9.25443C11.1866 9.56404 11.8139 9.92853 12.3046 10.7713C12.7954 11.614 12.7704 11.713 12.7954 11.7974C12.8203 11.8817 12.7815 11.999 12.84 12.2881C12.84 12.2881 12.0816 12.4451 11.9923 12.5112C11.9923 12.5112 11.8139 11.4561 11.0108 10.6374C10.2078 9.81878 8.56828 9.61356 7.48642 9.61133C6.40456 9.6091 6.09806 9.63587 5.345 9.5221C4.59193 9.40834 3.10141 8.74138 1.99902 7.42529Z" fill="#FFBE00"/>
<path fill-rule="evenodd" clip-rule="evenodd" d="M11.6357 14.7587C11.6357 14.3443 11.6955 14.0003 11.9034 13.688C12.1113 13.3757 12.528 12.8404 13.3756 12.7958C13.3756 12.7958 12.7288 12.4911 12.8849 11.8589C12.8849 11.8589 13.1972 12.7262 14.3571 12.7511C14.3571 12.7511 13.4247 12.885 13.0634 13.2865C12.702 13.688 12.4508 13.9834 12.3495 14.268C12.2483 14.5526 12.2001 15.3338 12.3942 15.6956C12.5882 16.0574 12.8064 16.293 13.4649 16.454C13.254 16.4743 13.0413 16.4489 12.8412 16.3796C12.641 16.3103 12.4581 16.1987 12.3049 16.0525C11.7736 15.5519 11.6357 15.1736 11.6357 14.7587Z" fill="#FFBE00"/>
<path fill-rule="evenodd" clip-rule="evenodd" d="M13.0848 12.7316C13.0848 12.7316 11.9391 12.7651 11.211 14.1592C11.211 14.1592 11.0326 12.5389 12.8171 12.4193C12.8936 12.5336 12.9835 12.6385 13.0848 12.7316Z" fill="#FFBE00"/>
<path fill-rule="evenodd" clip-rule="evenodd" d="M4.00684 11.0675C4.00684 11.0675 4.69075 11.9071 5.43445 12.1382C6.17815 12.3693 6.56673 12.1703 7.04052 12.3613C7.51431 12.5522 7.65395 12.7878 7.70971 12.9413C7.70971 12.9413 7.24128 12.6325 6.50516 12.6736C5.76905 12.7146 5.03293 12.6035 4.63142 12.1382C4.2299 11.6729 4.10989 11.49 4.00684 11.0675Z" fill="#FFBE00"/>
<path d="M13.7666 16.5513L14.0097 15.3914H14.322C14.4113 15.3914 14.4648 15.3914 14.4889 15.3954C14.533 15.3994 14.5764 15.4093 14.6178 15.4248C14.6555 15.4393 14.6904 15.4603 14.7209 15.4868C14.7525 15.5145 14.7794 15.547 14.8007 15.5832C14.8242 15.6236 14.8418 15.6672 14.8529 15.7126C14.8653 15.7652 14.8713 15.8191 14.8708 15.8732C14.873 15.9881 14.8486 16.1021 14.7994 16.206C14.7578 16.2953 14.6969 16.3743 14.6209 16.4371C14.5575 16.4852 14.4842 16.5187 14.4064 16.5352C14.3307 16.549 14.2539 16.5548 14.177 16.5526L13.7666 16.5513ZM14.045 16.3644H14.1659C14.2298 16.3666 14.2938 16.3613 14.3564 16.3483C14.3968 16.3369 14.4339 16.3161 14.4648 16.2876C14.5155 16.2393 14.5559 16.1812 14.5835 16.1168C14.6172 16.0371 14.6336 15.9512 14.6316 15.8647C14.6358 15.8004 14.6221 15.7361 14.5919 15.6791C14.5694 15.6411 14.5346 15.6119 14.4933 15.5961C14.4454 15.5844 14.3959 15.5796 14.3466 15.5819H14.2078L14.045 16.3644Z" fill="#001E78"/>
<path d="M14.9346 16.5513L15.1768 15.3914H16.0379L15.9973 15.5854H15.3758L15.32 15.8495H15.9214L15.8808 16.0436H15.2799L15.2067 16.3586H15.8826L15.8416 16.5526L14.9346 16.5513Z" fill="#001E78"/>
<path d="M16.0918 16.0958C16.0925 16.0225 16.1028 15.9496 16.1226 15.879C16.1463 15.7834 16.1881 15.6933 16.2457 15.6135C16.3006 15.5387 16.3721 15.4776 16.4545 15.4351C16.5435 15.3905 16.6419 15.3682 16.7414 15.3699C16.8054 15.3672 16.8694 15.3777 16.9293 15.4007C16.9891 15.4237 17.0436 15.4588 17.0893 15.5038C17.1347 15.551 17.17 15.6071 17.193 15.6684C17.216 15.7298 17.2263 15.7952 17.2232 15.8607C17.2231 15.9848 17.1936 16.1071 17.1371 16.2176C17.0851 16.3259 17.0038 16.4176 16.9024 16.4821C16.8018 16.5443 16.6856 16.5763 16.5674 16.5745C16.4713 16.5778 16.3765 16.5522 16.2952 16.5009C16.226 16.4571 16.1716 16.3936 16.1391 16.3184C16.1082 16.2482 16.0921 16.1724 16.0918 16.0958ZM16.3278 16.0913C16.3256 16.1649 16.3516 16.2366 16.4005 16.2916C16.4246 16.3183 16.4543 16.3394 16.4874 16.3534C16.5206 16.3673 16.5564 16.3738 16.5924 16.3724C16.6594 16.3714 16.7244 16.349 16.7779 16.3086C16.8434 16.2584 16.8944 16.1917 16.9256 16.1154C16.9627 16.0363 16.9825 15.9502 16.9836 15.8629C16.9881 15.7844 16.9616 15.7072 16.91 15.6479C16.886 15.6223 16.8569 15.6021 16.8245 15.5887C16.7921 15.5752 16.7572 15.5688 16.7222 15.5698C16.6646 15.5698 16.6081 15.5849 16.5581 15.6136C16.5082 15.6422 16.4666 15.6834 16.4375 15.7331C16.3654 15.8385 16.3271 15.9635 16.3278 16.0913Z" fill="#001E78"/>
<path d="M17.5223 16.5514H17.2832L17.5263 15.3914H18.0421C18.1123 15.3888 18.1824 15.3982 18.2495 15.4191C18.2996 15.4377 18.3418 15.473 18.3691 15.519C18.4007 15.573 18.4162 15.6349 18.4137 15.6975C18.4167 15.7874 18.3847 15.875 18.3245 15.9419C18.2522 16.0122 18.1573 16.0544 18.0568 16.0611C18.0907 16.0928 18.1199 16.1293 18.1433 16.1695C18.212 16.2934 18.2716 16.422 18.3218 16.5545H18.0653C18.0447 16.4893 18.0043 16.3872 17.9439 16.248C17.9229 16.1893 17.8869 16.1372 17.8395 16.0967C17.8026 16.0785 17.7614 16.0706 17.7204 16.074H17.6254L17.5223 16.5514ZM17.6597 15.8964H17.7864C17.8722 15.9011 17.9581 15.8933 18.0416 15.8732C18.081 15.8599 18.1154 15.8348 18.1402 15.8014C18.163 15.7718 18.1755 15.7357 18.1759 15.6984C18.1769 15.6793 18.1726 15.6604 18.1636 15.6437C18.1545 15.6269 18.141 15.6129 18.1246 15.6033C18.081 15.5866 18.0342 15.5801 17.9876 15.5841H17.7244L17.6597 15.8964Z" fill="#001E78"/>
<path d="M18.6936 15.39H18.9319L18.798 16.0208L18.7659 16.1761C18.7638 16.1883 18.7628 16.2007 18.7628 16.2131C18.7622 16.2346 18.7664 16.2559 18.7751 16.2756C18.7837 16.2953 18.7966 16.3128 18.8128 16.3269C18.8544 16.3593 18.9065 16.3752 18.9591 16.3715C19.0086 16.3735 19.0577 16.3622 19.1014 16.3389C19.1406 16.3171 19.1718 16.2833 19.1906 16.2426C19.2193 16.1725 19.2403 16.0995 19.2531 16.0249L19.3869 15.39H19.6256L19.4918 16.0253C19.4729 16.1313 19.4405 16.2345 19.3954 16.3322C19.3574 16.4041 19.3001 16.4639 19.2299 16.5049C19.1441 16.552 19.0471 16.575 18.9493 16.5714C18.8154 16.5714 18.7106 16.5379 18.637 16.4719C18.6017 16.4395 18.5739 16.3999 18.5553 16.3558C18.5367 16.3117 18.5279 16.2641 18.5295 16.2162C18.5296 16.1927 18.5314 16.1691 18.5348 16.1458C18.5348 16.1288 18.546 16.0811 18.5625 16.0017L18.6936 15.39Z" fill="#001E78"/>
<path d="M19.8655 16.5514H19.626L19.8691 15.3914H20.3848C20.4551 15.3888 20.5252 15.3982 20.5923 15.4191C20.6424 15.4377 20.6846 15.473 20.7119 15.519C20.7435 15.573 20.759 15.6349 20.7565 15.6975C20.7597 15.7875 20.7276 15.8752 20.6672 15.9419C20.595 16.0122 20.5001 16.0544 20.3996 16.0611C20.4335 16.0928 20.4627 16.1293 20.4861 16.1695C20.5547 16.2934 20.6144 16.422 20.6646 16.5545H20.408C20.3875 16.4893 20.3471 16.3872 20.2867 16.248C20.2657 16.1893 20.2297 16.1372 20.1823 16.0967C20.1455 16.0785 20.1045 16.0707 20.0636 16.074H19.9659L19.8655 16.5514ZM20.0025 15.8964H20.1292C20.2151 15.9011 20.3012 15.8932 20.3848 15.8732C20.4242 15.8598 20.4586 15.8347 20.4834 15.8014C20.506 15.7717 20.5185 15.7356 20.5191 15.6984C20.5201 15.6793 20.5157 15.6603 20.5066 15.6436C20.4975 15.6268 20.4839 15.6129 20.4674 15.6033C20.4238 15.5866 20.3769 15.5801 20.3304 15.5841H20.0672L20.0025 15.8964Z" fill="#001E78"/>
<path d="M20.8682 16.0958C20.8688 16.0225 20.8792 15.9496 20.8989 15.879C20.9227 15.7834 20.9645 15.6933 21.0221 15.6135C21.0769 15.5386 21.1484 15.4775 21.2309 15.4351C21.3197 15.3906 21.418 15.3682 21.5173 15.3699C21.5814 15.3672 21.6455 15.3777 21.7054 15.4007C21.7653 15.4237 21.8199 15.4588 21.8657 15.5038C21.9111 15.551 21.9464 15.6071 21.9694 15.6684C21.9924 15.7298 22.0027 15.7952 21.9996 15.8607C21.9995 15.9848 21.97 16.1071 21.9134 16.2176C21.8613 16.3258 21.7801 16.4175 21.6788 16.4821C21.5782 16.5442 21.4619 16.5763 21.3437 16.5745C21.2476 16.5778 21.1526 16.5522 21.0712 16.5009C21.0022 16.4569 20.9478 16.3934 20.915 16.3184C20.8845 16.2481 20.8686 16.1724 20.8682 16.0958ZM21.1042 16.0913C21.1019 16.1649 21.1279 16.2366 21.1769 16.2916C21.201 16.3183 21.2307 16.3394 21.2638 16.3534C21.297 16.3673 21.3328 16.3738 21.3687 16.3724C21.4358 16.3714 21.5008 16.349 21.5543 16.3086C21.6196 16.2584 21.6704 16.1917 21.7015 16.1154C21.7388 16.0364 21.7587 15.9503 21.76 15.8629C21.7644 15.7844 21.738 15.7072 21.6864 15.6479C21.6623 15.6223 21.6332 15.6022 21.6008 15.5887C21.5684 15.5753 21.5336 15.5688 21.4985 15.5698C21.441 15.5698 21.3844 15.5849 21.3345 15.6135C21.2845 15.6422 21.243 15.6834 21.2139 15.7331C21.1419 15.8386 21.1038 15.9636 21.1046 16.0913H21.1042Z" fill="#001E78"/>
</svg>
