<svg width="24" height="25" viewBox="0 0 24 25"  xmlns="http://www.w3.org/2000/svg"       fill="currentColor">
<path d="M12.0017 7.306C9.73252 7.306 7.88593 9.1526 7.88593 11.4218C7.88593 13.6909 9.73252 15.5375 12.0017 15.5375C14.2709 15.5375 16.1175 13.6909 16.1175 11.4218C16.1175 9.1526 14.2709 7.306 12.0017 7.306ZM12.0017 14.374C10.3693 14.374 9.04367 13.0484 9.04367 11.416C9.04367 9.78357 10.3693 8.45796 12.0017 8.45796C13.6341 8.45796 14.9597 9.78357 14.9597 11.416C14.9597 13.0484 13.6341 14.374 12.0017 14.374Z" />
<path d="M20.0423 8.22063C15.6081 3.78648 8.39541 3.78648 3.96704 8.22063L1.17689 11.0108C0.951128 11.2366 0.951128 11.6012 1.17689 11.827L3.96704 14.6172C6.18412 16.8342 9.09584 17.9399 12.0076 17.9399C14.9193 17.9399 17.831 16.8342 20.0481 14.6172L22.8382 11.827C23.064 11.6012 23.064 11.2366 22.8382 11.0108L20.0423 8.22063ZM19.2203 13.801C15.2377 17.7836 8.7601 17.7836 4.77747 13.801L2.39831 11.4218L4.77747 9.04263C8.7601 5.06 15.2377 5.06 19.2203 9.04263L21.5995 11.4218L19.2203 13.801Z" />
</svg>
